<svg width="20" height="22" viewBox="0 0 20 22" fill="none" xmlns="http://www.w3.org/2000/svg">
<path fill-rule="evenodd" clip-rule="evenodd" d="M5.94453 2.441L4.66333 0.905201L0.0560303 4.7488L1.33713 6.2846L5.94453 2.441ZM15.3365 0.905801L19.9439 4.7494L18.6627 6.2852L14.0553 2.4416L15.3365 0.905801ZM10.5 7.0948H9.00003V13.0948L13.75 15.9448L14.5 14.7148L10.5 12.3448V7.0948ZM10 3.0948C5.03003 3.0948 1.00003 7.1248 1.00003 12.0948C1.00003 17.0648 5.03003 21.0948 10 21.0948C14.97 21.0948 19 17.0648 19 12.0948C19 7.1248 14.97 3.0948 10 3.0948ZM3.00003 12.0948C3.00003 15.9548 6.14003 19.0948 10 19.0948C13.86 19.0948 17 15.9548 17 12.0948C17 8.2348 13.86 5.0948 10 5.0948C6.14003 5.0948 3.00003 8.2348 3.00003 12.0948Z" fill="#6984E2"/>
</svg>
