<svg width="508" height="308" viewBox="0 0 508 308" fill="none" xmlns="http://www.w3.org/2000/svg">
<g clip-path="url(#clip0)">
<path d="M323.071 308C425.204 308 508 300.555 508 291.372C508 282.188 425.204 274.744 323.071 274.744C220.938 274.744 138.142 282.188 138.142 291.372C138.142 300.555 220.938 308 323.071 308Z" fill="#3F3D56"/>
<path opacity="0.3" d="M232.68 135.866L433.407 135.866V6.10352e-05L232.68 6.10352e-05L232.68 135.866Z" fill="#3F3D56"/>
<path d="M420.595 12.4485H361.159V77.1806H420.595V12.4485Z" fill="#F2F2F2"/>
<path d="M267.202 16.3608L324.502 16.3608V12.4485L267.202 12.4485V16.3608Z" fill="#F2F2F2"/>
<path d="M361.16 91.0519H381.446V87.1395H361.16V91.0519Z" fill="#F2F2F2"/>
<path d="M361.871 98.1653H419.883V94.2529H361.871V98.1653Z" fill="#F2F2F2"/>
<path d="M255.457 30.5878L338.026 30.5878V26.6754L255.457 26.6754V30.5878Z" fill="#F2F2F2"/>
<path d="M255.457 41.6135L338.026 41.6135V37.7011L255.457 37.7011V41.6135Z" fill="#F2F2F2"/>
<path d="M255.457 52.6393L338.026 52.6393V48.7269L255.457 48.7269V52.6393Z" fill="#F2F2F2"/>
<path d="M255.457 63.6652L338.026 63.6652V59.7528L255.457 59.7528V63.6652Z" fill="#F2F2F2"/>
<path d="M255.457 74.6909L338.026 74.6909V70.7785L255.457 70.7785V74.6909Z" fill="#F2F2F2"/>
<path d="M255.457 85.7168L338.026 85.7168V81.8044L255.457 81.8044V85.7168Z" fill="#F2F2F2"/>
<path d="M255.457 96.7426L338.026 96.7426V92.8302L255.457 92.8302V96.7426Z" fill="#F2F2F2"/>
<path d="M370.085 49.4119C370.965 48.7863 371.936 48.2998 372.963 47.9695C379.479 45.5466 386.307 44.0613 393.241 43.5582C399.271 43.1309 405.806 43.6384 410.515 47.4255C411.248 47.9626 411.847 48.6605 412.267 49.4656C412.86 50.7433 412.68 52.2285 412.488 53.6236C412.445 54.1648 412.309 54.6944 412.085 55.1889C411.451 56.3948 409.891 56.8172 408.536 56.6726C407.18 56.528 405.909 55.955 404.572 55.6893C403.745 55.5452 402.908 55.46 402.069 55.4345L393.685 54.9809C388.472 54.6989 383.19 54.4215 378.076 55.473C376.502 55.7558 374.981 56.2796 373.566 57.026C372.398 57.6814 371.612 58.6218 370.528 57.4113C368.624 55.2847 367.57 51.3762 370.085 49.4119Z" fill="#2F2E41"/>
<path d="M383.077 53.1168C383.077 53.1168 394.353 48.0651 398.63 53.894C402.908 59.7229 396.297 57.3913 396.297 57.3913L388.909 59.7229L380.744 58.1685L383.077 53.1168Z" fill="#F2F2F2"/>
<path d="M383.66 49.4253C383.66 49.4253 385.215 56.8086 384.049 58.7515C382.882 60.6945 390.659 63.4146 390.659 63.4146L398.047 60.3059C398.047 60.3059 396.103 48.2595 398.047 45.928L383.66 49.4253Z" fill="#FFB9B9"/>
<path opacity="0.1" d="M383.66 49.4253C383.66 49.4253 385.215 56.8086 384.049 58.7515C382.882 60.6945 390.659 63.4146 390.659 63.4146L398.047 60.3059C398.047 60.3059 396.103 48.2595 398.047 45.928L383.66 49.4253Z" fill="black"/>
<path d="M401.547 42.0421C401.544 45.1331 400.314 48.0968 398.127 50.2825C395.94 52.4682 392.974 53.6973 389.881 53.6998C389.186 53.701 388.493 53.6386 387.809 53.5133C385.626 53.1193 383.6 52.1113 381.97 50.6077C380.34 49.104 379.173 47.1669 378.605 45.0237C378.038 42.8805 378.093 40.6199 378.766 38.5073C379.439 36.3946 380.7 34.5175 382.403 33.096C384.105 31.6744 386.178 30.7675 388.377 30.4816C390.577 30.1957 392.813 30.5426 394.823 31.4817C396.832 32.4208 398.532 33.9131 399.723 35.7835C400.914 37.654 401.547 39.8251 401.547 42.0421Z" fill="#FFB9B9"/>
<path d="M408.59 77.5363H371.388L372.231 73.8764L375.883 57.9744L380.104 55.1255L380.107 55.1219L382.09 53.781L383.076 53.1159C383.076 53.1159 383.659 53.3827 384.332 53.7454C384.528 53.8557 384.727 53.9695 384.926 54.0904C384.93 54.0869 384.93 54.0904 384.93 54.0904C385.253 54.2777 385.56 54.4906 385.848 54.7271C385.901 54.7769 385.948 54.8196 385.994 54.8658C386.734 55.6056 388.895 59.5322 392.468 57.5227C392.648 57.4236 392.823 57.3144 392.991 57.1955C393.922 56.5513 394.81 55.8468 395.65 55.0863C396.4 54.3999 396.888 53.8699 397.287 53.5036C397.465 53.3255 397.669 53.1745 397.892 53.0554C398.06 52.9674 398.247 52.9222 398.436 52.9239C399.604 52.9239 401.159 55.2535 401.159 55.2535L401.205 55.3887L401.209 55.3993L406.117 70.1241L408.59 77.5363Z" fill="#F2F2F2"/>
<path d="M371.388 77.5363H382.663C382.688 76.2338 382.62 74.9311 382.46 73.6382C382.115 71.0382 381.268 68.5343 380.734 65.9663C380.264 63.716 380.036 61.4219 380.054 59.1232C380.058 58.8067 380.065 58.4866 380.093 58.1665C380.121 57.4335 380.333 56.7193 380.709 56.0894C380.976 55.6803 381.342 55.3318 381.627 54.9405C381.726 54.8125 381.813 54.6755 381.887 54.5315V54.528C381.923 54.4573 381.955 54.3849 381.983 54.311C382.046 54.1409 382.082 53.9621 382.09 53.781C382.154 52.6073 381.09 51.4763 379.94 50.9926C378.327 50.3871 376.561 50.316 374.904 50.7898C373.262 51.2643 371.675 51.9129 370.171 52.7247C369.662 52.9737 369.156 53.2298 368.669 53.5143C368.087 53.8442 367.552 54.251 367.078 54.7236C365.868 55.972 365.338 57.7112 364.911 59.3935C364.503 60.6795 364.364 62.0352 364.501 63.3771C364.505 63.4198 364.516 63.466 364.523 63.5087C364.946 65.7245 366.754 67.389 367.719 69.4306C368.836 71.7994 368.761 74.5594 368.317 77.1416C368.295 77.2732 368.27 77.4048 368.245 77.5364H371.388V77.5363Z" fill="#2F2E41"/>
<path d="M417.285 63.3059C415.87 67.9566 414.842 72.7163 414.213 77.5364H398.141C397.721 76.3911 397.302 75.2447 396.885 74.097C396.551 73.231 396.265 72.3477 396.027 71.4508C395.772 70.4081 395.652 69.3372 395.667 68.264C395.667 68.0079 395.678 67.7483 395.699 67.4922C395.701 67.4902 395.702 67.4877 395.702 67.4851C395.702 67.4825 395.701 67.4799 395.699 67.478C395.797 66.1244 396.111 64.7952 396.628 63.5407C396.866 62.9703 397.139 62.4156 397.447 61.8797C398.194 60.5281 399.098 59.2548 399.903 57.9318C400.404 57.1232 400.841 56.2765 401.209 55.3994C401.209 55.3974 401.209 55.3955 401.209 55.3936C401.21 55.3918 401.211 55.3901 401.212 55.3887C401.692 54.2702 401.943 53.0668 401.949 51.8498C401.924 50.2813 399.269 47.5461 402.155 47.8093C406.095 48.165 409.48 50.4307 412.565 53.0128C413.388 53.7028 414.192 54.4177 414.978 55.1219C416.196 56.2174 417.48 57.4124 417.847 59.0094C417.906 59.264 417.94 59.5237 417.95 59.7848C417.929 60.9877 417.704 62.1782 417.285 63.3059Z" fill="#2F2E41"/>
<path d="M393.195 59.0164C392.79 57.9239 392.169 56.9239 391.37 56.076C390.563 55.3948 389.609 54.9115 388.582 54.6647C387.252 54.285 385.876 54.0879 384.493 54.079C382.846 54.0688 380.937 54.5102 380.238 56.0002C379.682 57.1834 380.113 58.5845 380.672 59.7659C380.911 60.3779 381.309 60.9151 381.825 61.3222C382.535 61.8017 383.453 61.7865 384.295 61.9471C385.6 62.2783 386.837 62.8381 387.946 63.6006L390.831 65.343L395.785 68.3357C395.654 68.2568 395.701 64.8616 395.549 64.3052C395.058 62.5127 393.955 60.7139 393.195 59.0164Z" fill="#FFB9B9"/>
<path d="M401.253 35.9666C401.046 35.2694 400.588 34.6731 399.969 34.2914C400.001 33.5446 399.909 32.7976 399.698 32.0807C398.991 29.9935 397.318 30.1132 395.739 29.1904C395.054 28.79 395.096 28.4362 394.739 27.7786C394.272 26.9166 393.572 26.2029 392.719 25.7187C391.706 25.0736 390.637 24.4093 389.438 24.3277C386.92 24.1562 384.989 26.5235 382.582 27.2833C381.521 27.6181 380.381 27.6319 379.314 27.9485C378.247 28.2651 377.183 29.021 377.024 30.1216C376.951 30.6296 377.08 31.1509 377.006 31.6588C376.858 32.6684 375.972 33.3754 375.378 34.2058C374.066 36.042 374.216 38.6361 375.266 40.634C375.487 41.0474 375.74 41.443 376.022 41.8171C376.11 42.7615 376.381 43.6796 376.821 44.5199C377.87 46.5178 379.676 48.0107 381.562 49.2511C381.407 48.5885 381.314 47.9132 381.282 47.2336C381.255 47.0071 381.285 46.7776 381.368 46.5651C381.578 46.1264 382.133 46.0097 382.556 45.7694C383.432 45.2716 383.776 44.1701 383.801 43.163C383.827 42.1558 383.613 41.147 383.719 40.1452C383.723 39.9148 383.775 39.6878 383.873 39.4789C383.97 39.2699 384.11 39.0837 384.284 38.9322C384.607 38.7478 384.977 38.6597 385.349 38.6785C387.144 38.6052 389.021 38.5723 390.605 37.7236C391.116 37.3845 391.665 37.1069 392.241 36.8966C393.587 36.5458 394.963 37.4887 395.738 38.6427C396.514 39.7967 396.901 41.17 397.617 42.3621C398.333 43.5542 399.569 44.6173 400.953 44.4761C401.031 44.4763 401.108 44.46 401.179 44.4283C401.251 44.3967 401.314 44.3504 401.366 44.2924C401.426 44.1852 401.453 44.0628 401.443 43.9405L401.52 38.6537C401.584 37.7494 401.494 36.8407 401.253 35.9666Z" fill="#2F2E41"/>
<path d="M370.488 71.2729C370.74 73.3536 370.893 75.4414 370.947 77.5363H361.159V69.3167C361.209 69.1175 361.263 68.9219 361.327 68.7263C361.939 66.8412 363.224 65.2621 364.338 63.6224C364.391 63.5406 364.448 63.4588 364.501 63.377C364.975 62.6853 365.383 61.9506 365.719 61.1825C365.879 60.8055 366.135 58.9809 366.405 58.8244C367.566 58.1522 368.509 61.026 368.669 61.6662C369.238 63.9461 369.733 66.2473 370.107 68.5698C370.253 69.4697 370.38 70.3707 370.488 71.2729Z" fill="#2F2E41"/>
<path d="M419.947 77.5363H397.479C397.287 77.0846 397.098 76.6329 396.899 76.1848C395.498 73.0178 393.686 70.0486 391.511 67.3535C391.152 66.9972 390.918 66.5341 390.845 66.0339C390.837 65.8262 390.888 65.6205 390.991 65.44C391.333 64.8033 392.237 64.4298 392.97 64.1276C393.727 63.8226 394.424 63.3841 395.027 62.8329C395.56 62.3536 395.968 61.7518 396.216 61.0794C396.282 60.8822 396.332 60.6801 396.365 60.4748C396.468 60.6099 396.575 60.7487 396.678 60.8838C396.931 61.2181 397.187 61.5489 397.447 61.8797C399.938 65.0772 402.675 68.2284 406.117 70.1241C407.016 70.6248 407.965 71.029 408.95 71.3299C409.044 71.3713 409.146 71.3926 409.248 71.3926C409.351 71.3926 409.453 71.3713 409.547 71.3299C409.693 71.2108 409.786 71.0398 409.807 70.8533C410.113 69.5729 410.22 68.2533 410.444 66.9552C410.856 64.5932 411.648 62.3134 412.79 60.2045C413.427 59.0201 415.498 54.6916 416.811 57.4196C417.189 58.2056 417.568 58.994 417.95 59.7848C418.189 60.2863 418.431 60.7842 418.673 61.2858C419.566 62.8768 419.973 64.6944 419.844 66.5141C419.879 70.1917 419.914 73.8658 419.947 77.5363Z" fill="#2F2E41"/>
<path opacity="0.1" d="M371.388 77.5363H373.335L372.231 73.8764L370.641 68.6018C370.659 69.4948 370.608 70.3879 370.487 71.2729C370.247 73.1021 369.724 74.8828 368.936 76.5511C368.783 76.8747 368.619 77.2019 368.487 77.5363H371.388Z" fill="black"/>
<path opacity="0.1" d="M411.042 66.2887C410.768 67.0254 411.017 67.8402 411.229 68.5973C411.841 70.7934 412.127 73.0675 412.077 75.3467C412.086 75.3866 412.085 75.428 412.073 75.4673C412.062 75.5066 412.041 75.5425 412.013 75.5717C411.984 75.6009 411.949 75.6226 411.91 75.6347C411.871 75.6469 411.829 75.6491 411.789 75.6412C410.892 75.6961 409.864 75.7019 409.255 75.0407L411.042 66.2887Z" fill="black"/>
<path opacity="0.3" d="M200.727 1.39844H0V137.265H200.727V1.39844Z" fill="#3F3D56"/>
<path d="M72.2475 13.8469H12.8124V78.5791H72.2475V13.8469Z" fill="#F2F2F2"/>
<path d="M166.205 13.8469H108.905V17.7593H166.205V13.8469Z" fill="#F2F2F2"/>
<path d="M33.8104 88.5378H13.5242V92.4502H33.8104V88.5378Z" fill="#F2F2F2"/>
<path d="M71.5357 95.6512H13.5242V99.5636H71.5357V95.6512Z" fill="#F2F2F2"/>
<path d="M177.949 28.0737H95.3809V31.9861H177.949V28.0737Z" fill="#F2F2F2"/>
<path d="M177.949 39.0996H95.3809V43.012H177.949V39.0996Z" fill="#F2F2F2"/>
<path d="M177.949 50.1254H95.3809V54.0377H177.949V50.1254Z" fill="#F2F2F2"/>
<path d="M177.949 61.1512H95.3809V65.0636H177.949V61.1512Z" fill="#F2F2F2"/>
<path d="M177.949 72.177H95.3809V76.0894H177.949V72.177Z" fill="#F2F2F2"/>
<path d="M177.949 83.2028H95.3809V87.1151H177.949V83.2028Z" fill="#F2F2F2"/>
<path d="M177.949 94.2286H95.3809V98.141H177.949V94.2286Z" fill="#F2F2F2"/>
<path d="M70.6317 78.9348H62.9051C62.3107 77.3378 61.7828 75.7207 61.3213 74.0834C61.0169 72.1583 60.1388 70.3697 58.8016 68.9511C58.3933 68.4962 58.0298 68.0031 57.7161 67.4786C57.0537 66.1871 56.8146 64.7201 57.0328 63.2852C57.0772 62.8859 57.1437 62.4893 57.2321 62.0973C57.5702 60.5786 58.136 59.1203 58.6094 57.6407C58.7094 57.3403 58.8919 57.0739 59.1361 56.8721C59.3802 56.6702 59.6762 56.541 59.9903 56.499C60.4997 56.4138 61.0228 56.4742 61.4993 56.6733C61.6047 56.7162 61.7059 56.7686 61.8018 56.8298C62.6453 57.3384 63.083 58.377 63.4354 59.3266C65.0476 63.6516 66.6586 67.9765 68.2685 72.3015C68.5817 73.1409 68.8949 73.9826 69.2081 74.8267C69.6707 76.0645 70.1298 77.3022 70.5213 78.5648C70.5605 78.6894 70.5961 78.8103 70.6317 78.9348Z" fill="#D0CDE1"/>
<path d="M38.4661 22.0098C36.545 22.6582 34.8046 24.1747 34.4112 26.1625C34.2288 27.084 34.3406 28.0419 34.1872 28.9686C33.8313 31.1179 32.1431 32.7593 30.5861 34.2839C29.029 35.8085 27.4211 37.5801 27.3074 39.7556C27.183 42.1378 28.9118 44.3696 28.6126 46.7363C28.2651 49.4859 25.3591 51.2676 24.6407 53.9444C24.161 55.7319 24.7488 57.6573 25.7159 59.2355C27.5587 62.2429 30.7088 64.2847 34.0633 65.3792C37.4178 66.4738 40.9905 66.7041 44.5191 66.741C48.8156 66.786 53.4804 66.4174 56.7086 63.5835C58.5525 61.9503 59.7106 59.6809 59.9505 57.2303C60.2571 53.9477 58.8862 50.5559 59.8318 47.3974C60.427 45.4096 61.9194 43.5943 61.6967 41.5314C61.4789 39.5144 59.7162 38.0847 58.5069 36.4553C57.3778 34.9339 56.6927 33.1373 56.0212 31.366L53.7237 25.3055C53.2721 24.1141 52.7761 22.861 51.7696 22.0791C49.8853 20.6152 46.8555 20.9028 44.6522 21.2048C42.6082 21.4849 40.4318 21.3464 38.4661 22.0098Z" fill="#2F2E41"/>
<path d="M40.2433 41.9828C40.2433 41.9828 40.4682 48.7249 39.7935 49.3991C39.1189 50.0732 42.4921 54.5679 42.4921 54.5679L48.5638 54.3432L51.7121 51.8711L49.0135 48.2754C49.0135 48.2754 47.8892 42.4323 48.7887 41.0839C49.6882 39.7355 40.2433 41.9828 40.2433 41.9828Z" fill="#A0616A"/>
<path opacity="0.1" d="M40.2433 41.9828C40.2433 41.9828 40.4682 48.7249 39.7935 49.3991C39.1189 50.0732 42.4921 54.5679 42.4921 54.5679L48.5638 54.3432L51.7121 51.8711L49.0135 48.2754C49.0135 48.2754 47.8892 42.4323 48.7887 41.0839C49.6882 39.7355 40.2433 41.9828 40.2433 41.9828Z" fill="black"/>
<path d="M43.9538 44.5673C48.4248 44.5673 52.0494 40.9451 52.0494 36.4769C52.0494 32.0087 48.4248 28.3865 43.9538 28.3865C39.4827 28.3865 35.8582 32.0087 35.8582 36.4769C35.8582 40.9451 39.4827 44.5673 43.9538 44.5673Z" fill="#A0616A"/>
<path d="M48.1033 78.9347H54.6661C54.9116 78.4901 55.143 78.0278 55.4099 77.6081V77.6045C55.7017 77.097 56.1119 76.6674 56.6057 76.3525C56.9196 76.2089 57.2168 76.0312 57.4919 75.8226C57.7551 75.5373 57.9413 75.1897 58.0329 74.8125C58.4849 73.4013 58.7341 71.9332 58.7731 70.452C58.7838 69.954 58.7731 69.449 58.8016 68.951C58.8156 68.5619 58.8657 68.175 58.9511 67.7951C59.1763 67.0227 59.503 66.2836 59.9227 65.5971C60.8124 63.9788 61.7045 62.3605 62.599 60.7422C62.7603 60.2863 62.8222 59.8012 62.7805 59.3195C62.7613 58.6696 62.5617 58.0379 62.204 57.4949C62.0794 57.2708 61.9442 57.0467 61.8018 56.8298C61.2528 55.9544 60.6134 55.139 59.8942 54.397C58.3682 52.7976 56.516 51.5446 54.4632 50.7229C54.2057 50.6363 53.9604 50.5167 53.7336 50.3672C53.4659 50.1412 53.2395 49.8704 53.0645 49.567C52.3527 48.4964 51.4843 47.2907 50.1995 47.3583C49.9904 47.2534 49.7625 47.1912 49.5291 47.1753C49.2956 47.1595 49.0614 47.1902 48.84 47.2658C48.7724 47.2834 48.7059 47.3048 48.6407 47.3298C48.1497 47.5471 47.673 47.7954 47.2135 48.0732C46.0315 48.6863 44.6921 48.9293 43.3698 48.7703C43.2147 48.7594 43.0629 48.7209 42.9214 48.6565C42.7713 48.5614 42.6328 48.4492 42.5085 48.3221C42.1838 48.0563 41.7942 47.8814 41.3797 47.8152C40.9652 47.7489 40.5405 47.7938 40.1489 47.9451C39.7813 48.076 39.4564 48.3048 39.2094 48.6067C38.9745 48.9019 38.8108 49.2576 38.5509 49.535C37.8783 50.2534 36.7679 50.2819 35.7856 50.2783C33.7455 50.2214 31.7059 50.4088 29.7104 50.8367C27.9579 51.2254 26.3201 52.0169 24.9271 53.1486L24.9236 53.1522C24.7314 53.3158 24.5535 53.4829 24.3755 53.6608C23.9707 54.0418 23.6485 54.5018 23.4288 55.0123C23.1583 55.7094 23.1939 56.4955 22.9483 57.2032C22.6778 57.9964 22.0764 58.6437 21.8344 59.4404C21.6493 60.0451 21.6742 60.7137 21.3682 61.2614C21.3824 61.2721 21.3931 61.2828 21.4073 61.2935C22.7028 62.4316 23.8096 63.9254 25.1087 65.0529C25.8626 65.6269 26.5003 66.3391 26.9878 67.1514C27.0816 67.3339 27.159 67.5243 27.2191 67.7205C27.3653 68.4004 27.4298 69.0953 27.4113 69.7905C27.575 73.116 29.3795 76.1321 31.3974 78.7782C31.4365 78.8316 31.4757 78.8849 31.5184 78.9347L48.1033 78.9347Z" fill="#D0CDE1"/>
<path d="M26.9878 67.1514C26.6817 69.2748 26.3732 71.3969 26.0624 73.518C25.9211 74.6539 25.7095 75.7799 25.429 76.8897C25.2439 77.5761 25.0054 78.2484 24.8381 78.9348H15.5706C15.5753 78.5504 15.605 78.1666 15.6595 77.786C15.8982 76.4187 16.286 75.0817 16.8162 73.7989C17.8946 70.8895 18.9718 67.9778 20.0478 65.0636C20.5069 63.8223 20.9019 62.5241 21.4073 61.2935C21.4963 61.0659 21.5924 60.8383 21.6956 60.6177C22.233 59.4369 23.7242 59.9206 24.8275 60.0985C25.1304 60.1361 25.4257 60.22 25.703 60.3474C26.0384 60.5321 26.3213 60.7989 26.5251 61.1228C27.5715 62.67 27.3437 64.7151 27.0732 66.5646C27.0447 66.7602 27.0163 66.9558 26.9878 67.1514Z" fill="#D0CDE1"/>
<path d="M55.4099 77.6081C55.4241 77.6578 55.5771 78.1878 55.8298 78.9347H48.1033C51.9327 78.2767 55.4099 77.6045 55.4099 77.6045V77.6081Z" fill="#2F2E41"/>
<path d="M44.6284 36.4768C49.4721 36.4768 53.3986 34.3638 53.3986 31.7574C53.3986 29.1509 49.4721 27.038 44.6284 27.038C39.7847 27.038 35.8582 29.1509 35.8582 31.7574C35.8582 34.3638 39.7847 36.4768 44.6284 36.4768Z" fill="#2F2E41"/>
<path d="M329.316 51.4155H128.589V187.282H329.316V51.4155Z" fill="#3F3D56"/>
<path opacity="0.1" d="M300.133 178.034C313.105 178.034 323.622 176.92 323.622 175.545C323.622 174.17 313.105 173.055 300.133 173.055C287.16 173.055 276.643 174.17 276.643 175.545C276.643 176.92 287.16 178.034 300.133 178.034Z" fill="black"/>
<path d="M200.837 63.864H141.402V128.596H200.837V63.864Z" fill="#F2F2F2"/>
<path d="M160.54 93.5847C160.733 93.6433 160.941 93.6333 161.127 93.5563C161.314 93.4793 161.468 93.3401 161.563 93.1624C162.385 91.8681 160.872 90.199 161.199 88.7013C161.462 87.5015 162.826 86.7893 163.105 85.5931C163.376 84.4309 162.541 83.1208 163.106 82.0691C163.548 81.2452 164.652 81.0284 165.577 81.1727C166.501 81.3171 167.379 81.7232 168.312 81.7801C169.557 81.8559 170.743 81.3085 171.96 81.0372C173.177 80.766 174.661 80.8722 175.376 81.8922C176.296 83.202 175.363 85.0258 175.683 86.5932C175.937 87.8378 176.98 88.8684 177.002 90.1385C177.01 90.5899 175.823 90.2263 175.886 90.6733C175.949 91.1204 175.388 90.7268 175.837 90.6737C176.02 90.6288 176.184 90.5269 176.305 90.3826C176.427 90.2383 176.499 90.0592 176.512 89.8711C176.565 89.4987 177.265 89.3746 177.257 88.9985C177.238 88.1171 178.833 88.7114 179.095 87.8698C179.699 85.9078 179.575 83.7941 178.746 81.916C178.319 81.1488 177.978 80.3367 177.729 79.4947C177.495 78.326 177.864 77.0715 177.477 75.9439C176.957 74.4243 175.234 73.6497 173.634 73.4924C172.035 73.3351 170.409 73.6167 168.819 73.3847C167.394 73.1768 166.015 72.5598 164.578 72.6492C162.854 72.7564 161.353 73.8667 160.158 75.1133C158.963 76.3599 157.949 77.7937 156.591 78.8617C156.176 79.1475 155.792 79.4774 155.448 79.8456C154.756 80.6876 154.686 81.8871 154.879 82.9592C155.071 84.0313 155.49 85.054 155.666 86.1288C155.832 87.1389 155.781 88.1708 155.853 89.1919C155.869 90.2218 156.181 91.2253 156.752 92.0834C156.998 92.4176 157.317 92.6913 157.686 92.8835C158.054 93.0758 158.461 93.1815 158.876 93.1927C159.164 93.1994 159.407 92.941 159.697 93.0084C160.06 93.0926 160.218 93.4371 160.54 93.5847Z" fill="#2F2E41"/>
<path d="M147.47 128.952C147.73 125.392 147.925 122.731 147.925 122.731L149.605 118.307L154.997 128.952L147.47 128.952Z" fill="#575A89"/>
<path opacity="0.1" d="M147.47 128.952C147.73 125.392 147.925 122.731 147.925 122.731L149.605 118.307L154.997 128.952L147.47 128.952Z" fill="black"/>
<path d="M159.965 93.9468C159.965 93.9468 164.993 106.736 162.098 109.172C159.203 111.608 178.247 105.061 178.247 105.061L177.79 103.387C177.79 103.387 171.544 100.951 174.591 93.9468C177.638 86.943 159.965 93.9468 159.965 93.9468Z" fill="#A0616A"/>
<path opacity="0.1" d="M159.965 93.9468C159.965 93.9468 164.993 106.736 162.098 109.172C159.203 111.608 178.247 105.061 178.247 105.061L177.79 103.387C177.79 103.387 171.544 100.951 174.591 93.9468C177.638 86.943 159.965 93.9468 159.965 93.9468Z" fill="black"/>
<path d="M167.126 99.1234C173.016 99.1234 177.79 94.3517 177.79 88.4655C177.79 82.5793 173.016 77.8076 167.126 77.8076C161.236 77.8076 156.461 82.5793 156.461 88.4655C156.461 94.3517 161.236 99.1234 167.126 99.1234Z" fill="#A0616A"/>
<path d="M193.025 111.456C193.025 111.456 192.982 112.303 192.907 113.782C192.754 116.795 192.48 122.44 192.206 128.952H150.865C149.785 127.506 148.901 125.924 148.235 124.246C148.055 123.76 147.951 123.249 147.925 122.731C147.698 118.694 151.317 113.06 153.872 112.523C156.766 111.912 162.25 106.128 162.25 106.128C162.268 106.349 162.341 106.561 162.463 106.745C162.585 106.929 162.752 107.079 162.948 107.181V107.185C163.39 107.413 163.885 107.521 164.382 107.498C166.169 107.498 174.027 103.873 176.55 102.689C177.045 102.458 177.333 102.319 177.333 102.319C180.243 103.574 183.25 104.594 186.323 105.367C187.857 105.75 189.272 106.506 190.441 107.569C191.611 108.631 192.499 109.967 193.025 111.456Z" fill="#575A89"/>
<path d="M158.712 92.5189C158.905 92.5775 159.113 92.5675 159.299 92.4905C159.486 92.4135 159.64 92.2743 159.735 92.0966C160.557 90.8022 159.043 89.1332 159.371 87.6355C159.634 86.4357 160.998 85.7235 161.277 84.5273C161.548 83.3651 160.713 82.055 161.277 81.0033C161.72 80.1794 162.824 79.9626 163.749 80.1069C164.673 80.2513 165.55 80.6574 166.484 80.7143C167.729 80.7901 168.915 80.2427 170.132 79.9714C171.348 79.7002 172.832 79.8064 173.548 80.8264C174.467 82.1362 173.535 83.9599 173.855 85.5274C174.109 86.772 177.005 87.6456 177.267 86.804C177.871 84.842 177.747 82.7283 176.918 80.8502C176.491 80.083 176.15 79.2709 175.901 78.4289C175.667 77.2602 176.035 76.0057 175.649 74.8781C175.128 73.3585 173.406 72.5839 171.806 72.4266C170.207 72.2693 168.581 72.5509 166.991 72.3189C165.566 72.111 164.187 71.494 162.75 71.5834C161.026 71.6907 159.525 72.8009 158.33 74.0475C157.135 75.2941 156.121 76.7279 154.763 77.7959C154.348 78.0817 153.964 78.4116 153.62 78.7798C152.928 79.6218 152.858 80.8213 153.05 81.8934C153.243 82.9655 153.661 83.9882 153.838 85.063C154.004 86.0731 153.953 87.105 154.024 88.1261C154.041 89.156 154.353 90.1595 154.923 91.0176C155.17 91.3518 155.489 91.6255 155.857 91.8177C156.226 92.01 156.633 92.1157 157.048 92.1269C157.336 92.1336 157.579 91.8752 157.869 91.9426C158.232 92.0268 158.39 92.3713 158.712 92.5189Z" fill="#2F2E41"/>
<path opacity="0.1" d="M198.31 128.952H186.245C185.327 122.223 184.569 115.187 184.569 115.187L187.007 114.12L191.961 111.456C191.961 111.456 192.324 112.317 192.907 113.782C194.153 116.916 196.413 122.813 198.31 128.952Z" fill="black"/>
<path d="M199.374 128.952H185.757C183.739 121.589 181.75 113.587 181.75 113.587L186.932 109.781L193.025 111.456C193.025 111.456 196.591 119.939 199.374 128.952Z" fill="#575A89"/>
<path d="M294.794 63.864H237.494V67.7764H294.794V63.864Z" fill="#6984E2"/>
<path d="M162.4 138.555H142.114V142.467H162.4V138.555Z" fill="#6984E2"/>
<path d="M200.125 145.668H142.114V149.581H200.125V145.668Z" fill="#6984E2"/>
<path d="M306.539 78.0908H223.97V82.0032H306.539V78.0908Z" fill="#F2F2F2"/>
<path d="M306.539 89.1167H223.97V93.0291H306.539V89.1167Z" fill="#F2F2F2"/>
<path d="M306.539 100.142H223.97V104.055H306.539V100.142Z" fill="#F2F2F2"/>
<path d="M306.539 111.168H223.97V115.081H306.539V111.168Z" fill="#F2F2F2"/>
<path d="M306.539 122.194H223.97V126.106H306.539V122.194Z" fill="#F2F2F2"/>
<path d="M306.539 133.22H223.97V137.132H306.539V133.22Z" fill="#F2F2F2"/>
<path d="M306.539 144.246H223.97V148.158H306.539V144.246Z" fill="#F2F2F2"/>
<path d="M322.454 144.774L299.883 167.331L290.396 157.85C290.095 157.549 289.737 157.31 289.344 157.148C288.951 156.985 288.529 156.901 288.103 156.901C287.677 156.901 287.255 156.985 286.862 157.148C286.468 157.31 286.111 157.549 285.81 157.85L285.469 157.341C284.203 158.606 284.543 161.168 285.81 162.433L298.119 174.734C298.583 175.198 299.212 175.458 299.868 175.459C300.524 175.459 301.153 175.199 301.617 174.735L327.037 149.358C328.305 148.092 328.764 145.773 327.498 144.507C326.232 143.241 323.72 143.509 322.454 144.774Z" fill="#57B894"/>
<path opacity="0.1" d="M322.454 144.774L299.883 167.331L290.396 157.85C290.095 157.549 289.737 157.31 289.344 157.148C288.951 156.985 288.529 156.901 288.103 156.901C287.677 156.901 287.255 156.985 286.862 157.148C286.468 157.31 286.111 157.549 285.81 157.85L285.469 157.341C284.203 158.606 284.543 161.168 285.81 162.433L298.119 174.734C298.583 175.198 299.212 175.458 299.868 175.459C300.524 175.459 301.153 175.199 301.617 174.735L327.037 149.358C328.305 148.092 328.764 145.773 327.498 144.507C326.232 143.241 323.72 143.509 322.454 144.774Z" fill="black"/>
<path d="M322.454 143.774L299.883 166.331L290.396 156.85C290.095 156.549 289.737 156.31 289.344 156.148C288.95 155.985 288.529 155.901 288.103 155.901C287.677 155.901 287.255 155.985 286.862 156.148C286.468 156.31 286.111 156.549 285.81 156.85C285.509 157.151 285.27 157.508 285.107 157.901C284.944 158.295 284.86 158.716 284.86 159.142C284.86 159.567 284.944 159.989 285.107 160.382C285.27 160.775 285.509 161.132 285.81 161.433L298.119 173.734C298.583 174.198 299.212 174.458 299.868 174.459C300.524 174.459 301.153 174.198 301.617 173.735L327.037 148.357C327.339 148.057 327.578 147.699 327.741 147.306C327.904 146.913 327.988 146.492 327.988 146.066C327.988 145.64 327.904 145.219 327.742 144.826C327.579 144.432 327.34 144.075 327.039 143.774C326.431 143.167 325.606 142.825 324.746 142.825C323.886 142.825 323.062 143.167 322.454 143.774Z" fill="#57B894"/>
<path opacity="0.1" d="M488.509 274.422C488.509 299.856 453.035 291.989 409.601 291.989C366.167 291.989 331.22 299.856 331.22 274.422C331.22 248.989 366.689 243.457 410.123 243.457C453.557 243.457 488.509 248.989 488.509 274.422Z" fill="black"/>
<path d="M488.509 269.671C488.509 295.105 453.035 287.238 409.601 287.238C366.167 287.238 331.22 295.105 331.22 269.671C331.22 244.238 366.689 238.706 410.123 238.706C453.557 238.706 488.509 244.238 488.509 269.671Z" fill="#3F3D56"/>
<path d="M340.219 189.994L338.612 191.859C338.612 191.859 319.067 193.693 319.861 196.864C320.654 200.034 343.392 192.636 343.392 192.636L340.219 189.994Z" fill="#FFC1C7"/>
<path d="M375.648 188.408C375.648 188.408 354.761 195.807 343.392 192.636L348.68 203.205C348.68 203.205 375.648 202.412 380.407 197.656C385.166 192.9 375.648 188.408 375.648 188.408Z" fill="#6984E2"/>
<path opacity="0.1" d="M375.648 188.408C375.648 188.408 354.761 195.807 343.392 192.636L348.68 203.205C348.68 203.205 375.648 202.412 380.407 197.656C385.166 192.9 375.648 188.408 375.648 188.408Z" fill="black"/>
<path d="M361.503 131.732C369.242 131.732 375.516 125.462 375.516 117.728C375.516 109.994 369.242 103.724 361.503 103.724C353.764 103.724 347.49 109.994 347.49 117.728C347.49 125.462 353.764 131.732 361.503 131.732Z" fill="#FFC1C7"/>
<path d="M373.452 130.875C373.934 131.795 374.545 132.642 375.267 133.39C377.186 135.477 379.477 137.19 382.022 138.441C374.068 140.057 366.035 141.25 357.955 142.018C358.808 139.016 357.685 135.804 356.176 133.072C354.667 130.34 352.743 127.793 351.799 124.819L361.27 125.073C362.989 125.119 364.713 125.171 366.431 125.087C367.715 125.024 369.855 124.255 371.053 124.538C373.588 125.137 372.345 128.629 373.452 130.875Z" fill="#FFC1C7"/>
<path d="M405.26 196.599L413.192 206.112C413.192 206.112 426.412 237.026 397.593 240.197C368.774 243.368 347.358 237.819 347.358 237.819C347.358 237.819 335.724 232.27 335.46 236.498C335.196 240.725 334.138 252.615 327.793 264.241L322.24 276.924C322.24 276.924 319.332 279.831 320.125 283.794C320.918 287.758 302.411 289.079 302.675 283.794C302.675 283.794 305.319 279.302 305.319 276.66C305.319 274.018 309.549 267.676 309.549 267.676L317.217 229.628C317.217 229.628 316.688 210.075 334.667 213.774C352.646 217.473 378.292 212.982 378.292 212.982L384.109 192.636L405.26 196.599Z" fill="#2F2E41"/>
<path opacity="0.1" d="M405.26 196.599L413.192 206.112C413.192 206.112 426.412 237.026 397.593 240.197C368.774 243.368 347.358 237.819 347.358 237.819C347.358 237.819 335.724 232.27 335.46 236.498C335.196 240.725 334.138 252.615 327.793 264.241L322.24 276.924C322.24 276.924 319.332 279.831 320.125 283.794C320.918 287.758 302.411 289.079 302.675 283.794C302.675 283.794 305.319 279.302 305.319 276.66C305.319 274.018 309.549 267.676 309.549 267.676L317.217 229.628C317.217 229.628 316.688 210.075 334.667 213.774C352.646 217.473 378.292 212.982 378.292 212.982L384.109 192.636L405.26 196.599Z" fill="black"/>
<path d="M375.516 195.904C375.516 195.904 399.708 186.823 413.192 206.112C413.192 206.112 416.629 235.969 402.881 237.29C389.132 238.611 371.153 238.347 366.923 233.855C362.693 229.364 335.989 216.681 335.989 216.681C335.989 216.681 322.696 209.905 320.089 218.709C317.481 227.514 317.217 229.628 317.217 229.628C317.217 229.628 303.468 239.668 297.916 241.518C297.916 241.518 294.214 246.802 292.099 246.802C289.984 246.802 277.029 249.709 278.351 239.933L299.767 220.38L321.183 199.506C321.183 199.506 327.264 190.522 342.863 195.278C353.216 198.357 363.717 200.915 374.326 202.941L375.516 195.904Z" fill="#2F2E41"/>
<path d="M319.332 283.266C319.332 283.266 324.355 295.949 320.125 297.534C315.895 299.119 306.905 298.062 306.905 298.062C306.905 298.062 296.329 296.741 293.685 297.005C291.041 297.27 280.201 295.156 281.788 290.928C283.374 286.701 291.57 287.758 291.57 287.758L298.973 284.323C298.973 284.323 299.766 281.68 301.617 282.737C303.468 283.794 308.756 287.758 319.332 283.266Z" fill="#CBCEDA"/>
<path d="M291.835 245.746C291.835 245.746 297.387 258.164 288.398 257.107C279.408 256.05 272.534 254.201 269.89 253.937C267.347 253.682 260.155 251.228 261.258 246.338C261.318 246.022 261.342 245.7 261.33 245.378C261.33 244.722 262.222 243.434 269.361 243.632C269.361 243.632 274.649 243.632 276.764 239.933C276.764 239.933 284.696 249.973 291.835 245.746Z" fill="#CBCEDA"/>
<path d="M351.852 140.055C351.852 140.055 370.889 128.165 386.753 140.055C402.616 151.945 413.192 206.112 413.192 206.112L376.441 197.921C376.441 197.921 374.855 191.579 372.74 190.522C370.624 189.465 370.36 184.974 370.36 184.974C370.36 184.974 358.991 181.539 359.784 168.327C360.577 155.116 351.852 140.055 351.852 140.055Z" fill="#6984E2"/>
<path d="M361.635 140.583H351.852C351.852 140.583 346.036 147.189 345.243 163.835L342.07 177.047C342.07 177.047 335.46 192.9 339.426 195.543C343.392 198.185 351.059 197.921 352.646 192.636C354.232 187.352 365.072 156.701 365.072 156.701L361.635 140.583Z" fill="#6984E2"/>
<path d="M358.831 99.5028C361.257 98.5088 363.911 98.207 366.498 98.6308C369.084 99.0547 371.503 100.188 373.484 101.904C378.561 106.432 379.586 113.82 380.87 120.499C382.153 127.178 384.735 134.616 391.035 137.191C388.195 137.57 385.313 137.487 382.501 136.943L392.02 145.468L375.985 140.245C370.952 138.606 365.666 136.946 360.455 137.872C351.821 139.405 345.811 147.516 337.518 150.366L338.44 145.872L332.876 145.83C334.209 144.844 335.299 143.568 336.064 142.097C335.802 141.779 335.478 141.517 335.113 141.325C334.747 141.134 334.347 141.018 333.936 140.985C331.617 126.528 340.206 112.238 351.401 102.793C353.603 100.936 356.039 99.1513 358.883 98.6866C361.727 98.2219 365.047 99.4927 366.036 102.198" fill="#2F2E41"/>
<path d="M116.228 231.991C116.228 262.405 135.32 287.015 158.915 287.015L116.228 231.991Z" fill="#3F3D56"/>
<path d="M158.915 287.015C158.915 256.259 180.22 231.373 206.55 231.373L158.915 287.015Z" fill="#6984E2"/>
<path d="M131.694 234.748C131.694 263.638 143.869 287.015 158.915 287.015L131.694 234.748Z" fill="#6984E2"/>
<path d="M158.915 287.015C158.915 247.716 183.541 215.917 213.974 215.917L158.915 287.015Z" fill="#3F3D56"/>
<path d="M149.935 287.403C149.935 287.403 155.988 287.216 157.813 285.918C159.637 284.62 167.125 283.069 167.577 285.152C168.03 287.234 176.675 295.508 169.84 295.563C163.006 295.618 153.96 294.499 152.139 293.39C150.318 292.282 149.935 287.403 149.935 287.403Z" fill="#A8A8A8"/>
<path opacity="0.2" d="M169.962 294.838C163.128 294.893 154.082 293.774 152.261 292.665C150.874 291.821 150.322 288.792 150.137 287.395C150.009 287.4 149.935 287.403 149.935 287.403C149.935 287.403 150.318 292.282 152.139 293.39C153.96 294.499 163.006 295.618 169.84 295.563C171.813 295.547 172.494 294.845 172.457 293.806C172.183 294.434 171.43 294.826 169.962 294.838Z" fill="black"/>
</g>
<defs>
<clipPath id="clip0">
<rect width="508" height="308" fill="white"/>
</clipPath>
</defs>
</svg>
