<svg width="442" height="306" viewBox="0 0 442 306" fill="none" xmlns="http://www.w3.org/2000/svg">
<g clip-path="url(#clip0)">
<path d="M355.942 182.519L350.734 189.618C350.029 190.581 349.004 191.26 347.842 191.536C346.681 191.812 345.46 191.665 344.397 191.123C343.614 190.724 342.95 190.126 342.47 189.39C341.99 188.655 341.712 187.806 341.663 186.929C341.613 186.052 341.795 185.177 342.189 184.392C342.583 183.607 343.177 182.939 343.909 182.455L350.55 178.066L369.539 159.083L371.648 152.286H385.949L378.447 168.457L355.942 182.519Z" fill="#FFB8B8"/>
<path d="M199.416 182.108C198.755 182.108 198.121 182.371 197.654 182.839C197.186 183.306 196.923 183.94 196.922 184.601V302.77C196.923 303.431 197.186 304.064 197.654 304.532C198.121 304.999 198.755 305.262 199.416 305.263H359.01C359.671 305.262 360.305 304.999 360.772 304.532C361.24 304.064 361.503 303.431 361.503 302.77V184.601C361.503 183.94 361.24 183.306 360.772 182.839C360.305 182.371 359.671 182.108 359.01 182.108H199.416Z" fill="#E6E6E6"/>
<path d="M203.854 298.519H354.572V188.852H203.854V298.519Z" fill="white"/>
<path d="M333.325 220.251H242.556C241.696 220.251 240.872 220.592 240.264 221.2C239.656 221.808 239.314 222.632 239.314 223.492C239.314 224.351 239.656 225.176 240.264 225.784C240.872 226.391 241.696 226.733 242.556 226.733H333.325C334.185 226.733 335.01 226.391 335.617 225.784C336.225 225.176 336.567 224.351 336.567 223.492C336.567 222.632 336.225 221.808 335.617 221.2C335.01 220.592 334.185 220.251 333.325 220.251Z" fill="#E6E6E6"/>
<path d="M242.556 240.195C241.696 240.195 240.872 240.537 240.264 241.144C239.656 241.752 239.314 242.576 239.314 243.436C239.314 244.296 239.656 245.12 240.264 245.728C240.872 246.335 241.696 246.677 242.556 246.677H333.325C334.185 246.677 335.01 246.335 335.617 245.728C336.225 245.12 336.567 244.296 336.567 243.436C336.567 242.576 336.225 241.752 335.617 241.144C335.01 240.537 334.185 240.195 333.325 240.195H242.556Z" fill="#E6E6E6"/>
<path d="M242.556 260.139C241.697 260.14 240.874 260.482 240.267 261.09C239.66 261.698 239.319 262.521 239.319 263.38C239.319 264.239 239.66 265.063 240.267 265.67C240.874 266.278 241.697 266.62 242.556 266.621H333.325C334.184 266.62 335.008 266.278 335.615 265.67C336.222 265.063 336.563 264.239 336.563 263.38C336.563 262.521 336.222 261.698 335.615 261.09C335.008 260.482 334.184 260.14 333.325 260.139H242.556Z" fill="#E6E6E6"/>
<path d="M225.35 227.73C227.554 227.73 229.34 225.944 229.34 223.741C229.34 221.538 227.554 219.752 225.35 219.752C223.147 219.752 221.36 221.538 221.36 223.741C221.36 225.944 223.147 227.73 225.35 227.73Z" fill="#C7F001"/>
<path d="M225.35 247.674C227.554 247.674 229.34 245.888 229.34 243.685C229.34 241.482 227.554 239.697 225.35 239.697C223.147 239.697 221.36 241.482 221.36 243.685C221.36 245.888 223.147 247.674 225.35 247.674Z" fill="#E6E6E6"/>
<path d="M225.35 267.618C227.554 267.618 229.34 265.832 229.34 263.629C229.34 261.426 227.554 259.641 225.35 259.641C223.147 259.641 221.36 261.426 221.36 263.629C221.36 265.832 223.147 267.618 225.35 267.618Z" fill="#E6E6E6"/>
<path d="M297.167 223.492C297.167 224.351 296.825 225.176 296.218 225.784C295.61 226.391 294.785 226.733 293.925 226.733H242.673C241.872 226.745 241.094 226.467 240.482 225.95C239.87 225.434 239.465 224.714 239.342 223.923C239.282 223.465 239.32 222.999 239.454 222.557C239.587 222.115 239.814 221.707 240.118 221.36C240.422 221.012 240.797 220.734 241.217 220.542C241.638 220.351 242.094 220.252 242.556 220.251H293.925C294.351 220.251 294.773 220.335 295.166 220.498C295.559 220.661 295.916 220.899 296.218 221.2C296.519 221.501 296.757 221.858 296.92 222.252C297.083 222.645 297.167 223.066 297.167 223.492Z" fill="#C7F001"/>
<path d="M279.213 168.147C286.375 168.147 292.18 162.343 292.18 155.183C292.18 148.024 286.375 142.219 279.213 142.219C272.052 142.219 266.246 148.024 266.246 155.183C266.246 162.343 272.052 168.147 279.213 168.147Z" fill="#E6E6E6"/>
<path d="M279.213 161.665C282.794 161.665 285.696 158.763 285.696 155.183C285.696 151.603 282.794 148.701 279.213 148.701C275.632 148.701 272.729 151.603 272.729 155.183C272.729 158.763 275.632 161.665 279.213 161.665Z" fill="white"/>
<path d="M423.926 285.641L417.362 288.687L407.387 269.739C401.229 260.309 397.21 249.007 394.388 236.658L404.702 237.361C410.843 246.124 415.394 254.909 416.86 263.739L423.926 285.641Z" fill="#FFB8B8"/>
<path d="M406.812 239.705H393.685V216.971L404.234 215.096L406.812 239.705Z" fill="#2F2E41"/>
<path d="M389.942 153.947C383.546 152.728 377.002 152.482 370.532 153.216L374.326 134.299C374.69 132.485 375.613 130.832 376.965 129.569C378.316 128.307 380.03 127.5 381.864 127.261C383.194 127.087 384.547 127.218 385.819 127.644C387.091 128.07 388.25 128.779 389.208 129.718C390.166 130.657 390.898 131.801 391.349 133.064C391.8 134.327 391.958 135.676 391.81 137.01L389.942 153.947Z" fill="#C7F001"/>
<path d="M380.673 115.139C386.758 115.139 391.691 110.207 391.691 104.123C391.691 98.0398 386.758 93.1082 380.673 93.1082C374.588 93.1082 369.655 98.0398 369.655 104.123C369.655 110.207 374.588 115.139 380.673 115.139Z" fill="#FFB8B8"/>
<path d="M397.67 116.897L383.135 127.209L379.267 108.811L390.168 104.475C390.61 109.298 393.216 113.404 397.67 116.897Z" fill="#FFB8B8"/>
<path d="M391.692 102.952C390.877 101.273 389.856 102.438 388.95 104.486L387.65 99.2868L386.09 98.7669L385.05 94.6079C380.28 93.469 376.452 95.8516 371.531 98.4986L369.656 102.952C368.907 101.423 368.513 99.7442 368.504 98.0417C368.494 96.3393 368.87 94.6567 369.602 93.1197C370.335 91.5827 371.405 90.231 372.733 89.1654C374.061 88.0999 375.613 87.3481 377.273 86.9661C378.089 86.7827 378.923 86.6861 379.759 86.6779C381.352 86.6613 382.931 86.9668 384.402 87.5759C385.873 88.1851 387.205 89.0853 388.319 90.2225C389.433 91.3597 390.306 92.7105 390.884 94.1934C391.463 95.6764 391.736 97.2611 391.686 98.8521L391.692 102.952Z" fill="#2F2E41"/>
<path d="M425.829 294.628L403.4 301.942C402.639 302.104 401.846 302.002 401.152 301.652C400.458 301.302 399.904 300.726 399.582 300.018C399.25 299.287 399.187 298.463 399.403 297.69C399.619 296.917 400.101 296.245 400.764 295.792C405.187 292.765 408.712 289.535 410.329 285.875C411.823 279.806 413.512 279.792 415.347 284.32C420.415 287.317 419.597 284.917 422.753 281.188L427.619 290.396C427.825 290.785 427.941 291.215 427.96 291.654C427.979 292.094 427.9 292.532 427.729 292.937C427.557 293.342 427.298 293.704 426.969 293.996C426.64 294.289 426.251 294.505 425.829 294.628Z" fill="#2F2E41"/>
<path d="M372.82 299.937L365.318 296.656L368.007 277.443L373.289 239.705L387.589 241.58C387.281 254.685 384.025 267.552 378.062 279.226L372.82 299.937Z" fill="#FFB8B8"/>
<path d="M397.201 245.564L372.352 240.642L378.916 206.19L377.743 196.816H410.329C409.14 208.953 403.47 226.872 397.201 245.564Z" fill="#2F2E41"/>
<path d="M411.501 200.097C399.473 197.053 387.641 196.622 376.102 200.097C373.944 177.861 373.35 156.658 375.239 137.092C375.689 132.355 377.979 127.982 381.617 124.913L395.325 113.381L405.505 118.469C406.819 119.126 407.928 120.129 408.714 121.371C409.499 122.612 409.93 124.045 409.96 125.513C412.183 155.094 413.887 183.243 411.501 200.097Z" fill="#C7F001"/>
<path d="M423.456 196.347L425.506 203.518C425.719 204.264 425.771 205.046 425.659 205.814C425.547 206.582 425.273 207.317 424.856 207.971C424.439 208.626 423.887 209.184 423.238 209.609C422.588 210.034 421.856 210.316 421.089 210.437C420.247 210.57 419.386 210.505 418.573 210.246C417.761 209.988 417.02 209.544 416.409 208.949C415.798 208.354 415.335 207.625 415.055 206.82C414.776 206.015 414.688 205.156 414.799 204.311L415.72 197.284L410.797 161.66L404.233 147.598L417.361 141.739L422.753 159.317L423.456 196.347Z" fill="#FFB8B8"/>
<path d="M370.429 305.899L347.456 300.535C346.721 300.281 346.095 299.782 345.683 299.123C345.27 298.464 345.095 297.684 345.187 296.912C345.282 296.115 345.655 295.378 346.241 294.828C346.826 294.279 347.587 293.954 348.388 293.91C353.74 293.612 358.429 292.676 361.709 290.383C366.132 285.967 367.584 286.83 366.807 291.653C369.588 296.842 370.132 294.365 374.765 292.81L374.154 303.207C374.128 303.646 374.005 304.074 373.793 304.46C373.582 304.845 373.287 305.179 372.93 305.437C372.574 305.694 372.164 305.87 371.732 305.949C371.299 306.029 370.854 306.012 370.429 305.899Z" fill="#2F2E41"/>
<path d="M419.471 143.38C413.921 143.837 407.865 147.052 401.655 151.114L396.891 132.417C396.435 130.625 396.551 128.735 397.224 127.012C397.896 125.289 399.092 123.821 400.642 122.812C401.767 122.08 403.043 121.614 404.374 121.447C405.705 121.281 407.057 121.419 408.327 121.851C409.597 122.284 410.752 122.999 411.705 123.943C412.658 124.887 413.384 126.035 413.828 127.301L419.471 143.38Z" fill="#C7F001"/>
<path d="M2.47129 40.2713C1.8161 40.272 1.18796 40.5326 0.724663 40.9958C0.261371 41.4589 0.000762513 42.0869 0 42.7419V159.85C0.000762513 160.505 0.261371 161.133 0.724663 161.596C1.18796 162.059 1.8161 162.32 2.47129 162.321H160.632C161.288 162.32 161.916 162.059 162.379 161.596C162.842 161.133 163.103 160.505 163.104 159.85V42.7419C163.103 42.0869 162.842 41.4589 162.379 40.9957C161.916 40.5326 161.288 40.272 160.632 40.2712L2.47129 40.2713Z" fill="#E6E6E6"/>
<path d="M6.19287 156.129H156.91V46.4626H6.19287V156.129Z" fill="white"/>
<path d="M21.0056 98.2153C20.1536 98.2153 19.3364 98.5537 18.7339 99.1561C18.1314 99.7584 17.793 100.575 17.793 101.427C17.793 102.279 18.1314 103.096 18.7339 103.698C19.3364 104.301 20.1536 104.639 21.0056 104.639H142.098C142.95 104.639 143.767 104.301 144.369 103.698C144.972 103.096 145.31 102.279 145.31 101.427C145.31 100.575 144.972 99.7584 144.369 99.1561C143.767 98.5537 142.95 98.2153 142.098 98.2153H21.0056Z" fill="#E6E6E6"/>
<path d="M21.0056 117.98C20.1536 117.98 19.3364 118.319 18.7339 118.921C18.1314 119.524 17.793 120.34 17.793 121.192C17.793 122.044 18.1314 122.861 18.7339 123.463C19.3364 124.066 20.1536 124.404 21.0056 124.404H142.098C142.95 124.404 143.767 124.066 144.369 123.463C144.972 122.861 145.31 122.044 145.31 121.192C145.31 120.34 144.972 119.524 144.369 118.921C143.767 118.319 142.95 117.98 142.098 117.98H21.0056Z" fill="#E6E6E6"/>
<path d="M75.1262 138.734C74.2742 138.734 73.457 139.072 72.8545 139.675C72.252 140.277 71.9136 141.094 71.9136 141.946C71.9136 142.798 72.252 143.614 72.8545 144.217C73.457 144.819 74.2742 145.158 75.1262 145.158H87.9768C88.8288 145.158 89.646 144.819 90.2485 144.217C90.851 143.614 91.1894 142.798 91.1894 141.946C91.1894 141.094 90.851 140.277 90.2485 139.675C89.646 139.072 88.8288 138.734 87.9768 138.734H75.1262Z" fill="#C7F001"/>
<path d="M64.3323 57.4324C64.0702 57.4326 63.8189 57.5368 63.6336 57.7221C63.4482 57.9074 63.344 58.1586 63.3438 58.4206V83.5075C63.344 83.7695 63.4482 84.0207 63.6336 84.206C63.8189 84.3913 64.0702 84.4955 64.3323 84.4957H98.7717C99.0338 84.4955 99.285 84.3913 99.4704 84.206C99.6557 84.0207 99.7599 83.7695 99.7602 83.5075V58.4206C99.7599 58.1586 99.6557 57.9074 99.4704 57.7221C99.285 57.5368 99.0338 57.4326 98.7717 57.4324H64.3323Z" fill="#C7F001"/>
<path d="M81.552 73.625C84.5547 73.625 86.9888 71.1914 86.9888 68.1895C86.9888 65.1877 84.5547 62.7542 81.552 62.7542C78.5494 62.7542 76.1152 65.1877 76.1152 68.1895C76.1152 71.1914 78.5494 73.625 81.552 73.625Z" fill="white"/>
<path d="M90.4484 82.0252C90.4503 82.8842 90.247 83.7313 89.8553 84.4959H73.2483C72.8251 83.6672 72.6218 82.7438 72.6579 81.814C72.6939 80.8843 72.9682 79.9794 73.4543 79.1859C73.9404 78.3925 74.6221 77.7371 75.4341 77.2826C76.2462 76.828 77.1614 76.5895 78.092 76.5898H85.0116C85.7257 76.5894 86.4328 76.7298 87.0926 77.0028C87.7524 77.2758 88.3519 77.6761 88.8569 78.1809C89.3618 78.6857 89.7623 79.2851 90.0353 79.9447C90.3084 80.6043 90.4488 81.3113 90.4484 82.0252Z" fill="white"/>
<path d="M81.552 73.625C84.5547 73.625 86.9888 71.1914 86.9888 68.1895C86.9888 65.1877 84.5547 62.7542 81.552 62.7542C78.5494 62.7542 76.1152 65.1877 76.1152 68.1895C76.1152 71.1914 78.5494 73.625 81.552 73.625Z" fill="white"/>
<path d="M90.4484 82.0252C90.4503 82.8842 90.247 83.7313 89.8553 84.4959H73.2483C72.8251 83.6672 72.6218 82.7438 72.6579 81.814C72.6939 80.8843 72.9682 79.9794 73.4543 79.1859C73.9404 78.3925 74.6221 77.7371 75.4341 77.2826C76.2462 76.828 77.1614 76.5895 78.092 76.5898H85.0116C85.7257 76.5894 86.4328 76.7298 87.0926 77.0028C87.7524 77.2758 88.3519 77.6761 88.8569 78.1809C89.3618 78.6857 89.7623 79.2851 90.0353 79.9447C90.3084 80.6043 90.4488 81.3113 90.4484 82.0252Z" fill="white"/>
<path d="M81.5518 25.6946C88.649 25.6946 94.4024 19.9427 94.4024 12.8473C94.4024 5.75193 88.649 0 81.5518 0C74.4546 0 68.7012 5.75193 68.7012 12.8473C68.7012 19.9427 74.4546 25.6946 81.5518 25.6946Z" fill="#E6E6E6"/>
<path d="M81.5518 19.2711C85.1004 19.2711 87.9771 16.3952 87.9771 12.8475C87.9771 9.29979 85.1004 6.42383 81.5518 6.42383C78.0032 6.42383 75.1265 9.29979 75.1265 12.8475C75.1265 16.3952 78.0032 19.2711 81.5518 19.2711Z" fill="#C7F001"/>
<path d="M441.787 305.64H132.63V304.466H442L441.787 305.64Z" fill="#3F3D56"/>
</g>
<defs>
<clipPath id="clip0">
<rect width="442" height="306" fill="white"/>
</clipPath>
</defs>
</svg>
